<?xml version="1.0" encoding="utf-8"?>
<!-- Generator: Adobe Illustrator 16.0.0, SVG Export Plug-In . SVG Version: 6.00 Build 0)  -->
<!DOCTYPE svg PUBLIC "-//W3C//DTD SVG 1.1//EN" "http://www.w3.org/Graphics/SVG/1.1/DTD/svg11.dtd">
<svg version="1.1" id="Layer_1" xmlns="http://www.w3.org/2000/svg" xmlns:xlink="http://www.w3.org/1999/xlink" x="0px" y="0px"
	 width="133.869px" height="41.162px" viewBox="0 0 133.869 41.162" enable-background="new 0 0 133.869 41.162"
	 xml:space="preserve">
<g>
	<path fill="#8B1A1A" d="M32.458,24.989c-0.144-3.868-0.287-8.549-0.287-13.229h-0.144c-1.003,4.107-2.34,8.692-3.582,12.465
		l-3.916,12.562h-5.684L15.407,24.32c-1.051-3.772-2.149-8.357-2.914-12.561h-0.095c-0.191,4.346-0.334,9.313-0.573,13.325
		l-0.573,12.227H4.518l2.054-32.19h9.695l3.152,10.746c1.003,3.726,2.006,7.737,2.722,11.51h0.144
		c0.907-3.725,2.006-7.976,3.057-11.558L28.78,5.121h9.504l1.767,32.19h-7.116L32.458,24.989z"/>
	<path fill="#8B1A1A" d="M52.724,29.048l-2.292,8.263h-7.546l9.838-32.19h9.552l9.982,32.19h-7.833l-2.483-8.263H52.724z
		 M60.891,23.604l-2.006-6.83c-0.573-1.91-1.146-4.298-1.624-6.209h-0.095c-0.478,1.911-0.956,4.347-1.48,6.209l-1.911,6.83H60.891z
		"/>
	<path fill="#8B1A1A" d="M75.56,5.55c2.34-0.382,5.827-0.669,9.695-0.669c4.776,0,8.119,0.717,10.412,2.531
		c1.91,1.528,2.961,3.773,2.961,6.734c0,4.107-2.914,6.926-5.684,7.929v0.143c2.245,0.908,3.487,3.057,4.298,6.019
		c1.003,3.629,2.006,7.832,2.627,9.074h-7.451c-0.525-0.907-1.29-3.534-2.245-7.499c-0.859-4.012-2.245-5.109-5.206-5.157h-2.197
		v12.656H75.56V5.55z M82.771,19.401h2.866c3.63,0,5.779-1.815,5.779-4.633c0-2.961-2.006-4.441-5.349-4.489
		c-1.767,0-2.77,0.144-3.295,0.238V19.401z"/>
	<path fill="#8B1A1A" d="M130.011,35.831c-2.245,0.764-6.495,1.814-10.746,1.814c-5.875,0-10.125-1.48-13.086-4.346
		c-2.961-2.771-4.585-6.974-4.538-11.701c0.048-10.698,7.833-16.812,18.388-16.812c4.155,0,7.355,0.812,8.931,1.576l-1.528,5.826
		c-1.767-0.764-3.964-1.385-7.498-1.385c-6.066,0-10.651,3.438-10.651,10.411c0,6.639,4.155,10.556,10.125,10.556
		c1.671,0,3.009-0.191,3.582-0.478v-6.734h-4.967v-5.684h11.988V35.831z"/>
</g>
</svg>
